<svg width="35" height="30" viewBox="0 0 35 30" fill="none" xmlns="http://www.w3.org/2000/svg">
<path d="M30.8649 0H10.3243C8.44146 0 6.90092 1.3125 6.90092 2.91667V20.4167C6.90092 22.0208 8.44146 23.3333 10.3243 23.3333H30.8649C32.7478 23.3333 34.2883 22.0208 34.2883 20.4167V2.91667C34.2883 1.3125 32.7478 0 30.8649 0ZM16.3153 10.9375C16.3153 12.1479 15.1685 13.125 13.7478 13.125H12.0361V16.0417H9.46849V7.29167H13.7478C15.1685 7.29167 16.3153 8.26875 16.3153 9.47917V10.9375ZM24.8739 13.8542C24.8739 15.0646 23.727 16.0417 22.3063 16.0417H18.027V7.29167H22.3063C23.727 7.29167 24.8739 8.26875 24.8739 9.47917V13.8542ZM31.7207 9.47917H29.1532V10.9375H31.7207V13.125H29.1532V16.0417H26.5856V7.29167H31.7207V9.47917ZM12.0361 10.9375H13.7478V9.47917H12.0361V10.9375ZM3.4775 5.83333H0.0540771V26.25C0.0540771 27.8542 1.59462 29.1667 3.4775 29.1667H27.4415V26.25H3.4775V5.83333ZM20.5946 13.8542H22.3063V9.47917H20.5946V13.8542Z" fill="#E5E5E5"/>
</svg>
